<?xml version="1.0" encoding="utf-8"?>
<svg version="1.1" xmlns:xlink="http://www.w3.org/1999/xlink" width="36px" height="50px" xmlns="http://www.w3.org/2000/svg">
  <g transform="matrix(1 0 0 1 -914 -226 )">
    <path d="M 35.4040895813048 14.4278606965174  C 36.0350535540409 15.1859748874674  36.1402142161636 15.9914712153518  35.7195715676728 16.8443496801706  C 35.2989289191821 17.7209192134565  34.6212268743914 18.1592039800995  33.6864654333009 18.1592039800995  L 27 18.1592039800995  L 27 48.862828713575  C 26.9561830574489 49.1945036721156  26.8510223953262 49.4669509594883  26.6407010710808 49.680170575693  C 26.4303797468354 49.8933901918977  26.1616358325219 50  25.8344693281402 50  L 1.15676728334956 50  C 0.66601752677702 50  0.327166504381694 49.7867803837953  0.140214216163583 49.3603411513859  C -0.0467380720545278 48.8865197820422  0 48.4719260838664  0.280428432327167 48.1165600568586  L 5.8889970788705 41.2935323383085  C 6.09931840311587 41.0329305851694  6.39143135345667 40.9026297085999  6.76533592989289 41  L 18 41  L 18 18.1592039800995  L 11.2521908471276 18.1592039800995  C 10.317429406037 18.1592039800995  9.63972736124635 17.7209192134565  9.2190847127556 16.8443496801706  C 8.82181110029211 15.9677801468846  8.9269717624148 15.1622838190002  9.53456669912366 14.4278606965174  L 20.7517039922103 0.781805259417201  C 21.1723466407011 0.260601753139061  21.744888023369 0  22.4693281402142 0  C 23.1937682570594 0  23.7663096397274 0.260601753139061  24.1869522882181 0.781805259417201  L 35.4040895813048 14.4278606965174  Z " fill-rule="nonzero" fill="#000000" stroke="none" transform="matrix(1 0 0 1 914 226 )" />
  </g>
</svg>