<?xml version="1.0" encoding="utf-8"?>
<svg version="1.1" xmlns:xlink="http://www.w3.org/1999/xlink" width="36px" height="50px" xmlns="http://www.w3.org/2000/svg">
  <g transform="matrix(1 0 0 1 -1312 -226 )">
    <path d="M 0.140214216163583 0.674715909090912  C 0.350535540408958 0.224905303030298  0.689386562804284 0  1.15676728334956 0  L 25.8344693281402 0  C 26.1382667964946 0  26.4011684518014 0.112452651515144  26.6231742940604 0.337357954545453  C 26.8451801363194 0.562263257575757  26.9561830574489 0.840435606060602  27 1.171875  L 27 31.8181818181818  L 33.6864654333009 31.8181818181818  C 34.6212268743914 31.8181818181818  35.2989289191821 32.2561553030303  35.7195715676728 33.1321022727273  C 36.1402142161636 34.0080492424242  36.0350535540409 34.8248106060606  35.4040895813048 35.5823863636364  L 24.1869522882181 49.21875  C 23.7663096397274 49.7395833333333  23.1937682570594 50  22.4693281402142 50  C 21.744888023369 50  21.1723466407011 49.7395833333333  20.7517039922103 49.21875  L 9.53456669912366 35.5823863636364  C 8.9269717624148 34.8484848484848  8.82181110029211 34.0317234848485  9.2190847127556 33.1321022727273  C 9.63972736124635 32.2561553030303  10.317429406037 31.8181818181818  11.2521908471276 31.8181818181818  L 18 31.8181818181818  L 18 9  L 6.76533592989289 9  C 6.4381694255112 9.09090909090909  6.1460564751704 8.96070075757576  5.8889970788705 8.70028409090909  L 0.280428432327167 1.88210227272727  C -0.0233690360272639 1.55066287878787  -0.0701071080817916 1.14820075757576  0.140214216163583 0.674715909090912  Z " fill-rule="nonzero" fill="#000000" stroke="none" transform="matrix(1 0 0 1 1312 226 )" />
  </g>
</svg>