<?xml version="1.0" encoding="utf-8"?>
<svg version="1.1" xmlns:xlink="http://www.w3.org/1999/xlink" width="50px" height="39px" xmlns="http://www.w3.org/2000/svg">
  <g transform="matrix(1 0 0 1 -218 -875 )">
    <path d="M 46.1635044642857 35.19140625  C 46.3402157738095 35.0159801136364  46.4285714285714 34.8082386363636  46 34.5681818181818  L 46 13.2954545454545  C 45.8333333333333 13.9602272727273  45.1915922619048 14.5696022727273  44.5033482142857 15.1235795454545  C 39.5182291666667 18.9275568181818  35.5561755952381 22.0482954545455  32.6171875 24.4857954545455  C 31.6685267857143 25.2798295454545  30.8965773809524 25.8984375  30.3013392857143 26.3416193181818  C 29.7061011904762 26.7848011363636  28.901599702381 27.2325994318182  27.8878348214286 27.6850142045455  C 26.8740699404762 28.1374289772727  25.9207589285714 28.3636363636364  25.0279017857143 28.3636363636364  L 25 28.3636363636364  L 24.9720982142857 28.3636363636364  C 24.0792410714286 28.3636363636364  23.1259300595238 28.1374289772727  22.1121651785714 27.6850142045455  C 21.0984002976191 27.2325994318182  20.2938988095238 26.7848011363636  19.6986607142857 26.3416193181818  C 19.1034226190476 25.8984375  18.3314732142857 25.2798295454545  17.3828125 24.4857954545455  C 14.4438244047619 22.0482954545455  10.4817708333333 18.9275568181818  5.49665178571429 15.1235795454545  C 4.80840773809524 14.5696022727273  4.16666666666667 13.9602272727273  4 13.2954545454545  L 4 34.5681818181818  C 3.57142857142857 34.8082386363636  3.65978422619048 35.0159801136364  3.83649553571429 35.19140625  C 4.01320684523809 35.3668323863636  4.22247023809524 35.4545454545455  4.46428571428571 35  L 45.5357142857143 35  C 45.7775297619048 35.4545454545455  45.9867931547619 35.3668323863636  46.1635044642857 35.19140625  Z M 45.1311383928571 9.09907670454545  C 45.99609375 7.76029829545454  46.4285714285714 6.54616477272727  46.4285714285714 5.45667613636364  L 46.4285714285714 5.15198863636364  L 46.4285714285714 4.77805397727273  C 46.4285714285714 4.77805397727273  46.4239211309524 4.65802556818181  46.4146205357143 4.41796875  C 46.4053199404762 4.17791193181818  46.3774181547619 4.06249999999999  46.3309151785714 4.07173295454545  C 46.284412202381 4.08096590909091  46.2332589285714 3.99786931818181  46.1774553571429 3.82244318181818  C 46.1216517857143 3.64701704545454  46.0379464285714 3.57776988636363  45.9263392857143 3.61470170454545  C 45.8147321428571 3.65163352272727  45.6845238095238 3.62855113636364  45.5357142857143 4  L 4.46428571428571 4  C 4.22247023809524 3.54545454545455  4.01320684523809 3.63316761363636  3.83649553571429 3.80859375  C 3.65978422619048 3.98401988636363  3.57142857142857 4.19176136363636  3.57142857142857 4.43181818181818  C 3.57142857142857 7.53409090909091  4.93861607142857 10.15625  7.67299107142857 12.2982954545455  C 11.2630208333333 15.1051136363636  14.9925595238095 18.0319602272727  18.8616071428571 21.0788352272727  C 18.9732142857143 21.1711647727273  19.2987351190476 21.4435369318182  19.8381696428571 21.8959517045455  C 20.3776041666667 22.3483664772727  20.8054315476191 22.6946022727273  21.1216517857143 22.9346590909091  C 21.4378720238095 23.1747159090909  21.8517485119048 23.4655539772727  22.36328125 23.8071732954545  C 22.8748139880952 24.1487926136364  23.3444940476191 24.4026988636364  23.7723214285714 24.5688920454545  C 24.2001488095238 24.7350852272727  24.6000744047619 24.8181818181818  24.9720982142857 24.8181818181818  L 25 24.8181818181818  L 25.0279017857143 24.8181818181818  C 25.3999255952381 24.8181818181818  25.7998511904762 24.7350852272727  26.2276785714286 24.5688920454545  C 26.655505952381 24.4026988636364  27.1251860119048 24.1487926136364  27.63671875 23.8071732954545  C 28.1482514880952 23.4655539772727  28.5621279761905 23.1747159090909  28.8783482142857 22.9346590909091  C 29.194568452381 22.6946022727273  29.6223958333333 22.3483664772727  30.1618303571429 21.8959517045455  C 30.7012648809524 21.4435369318182  31.0267857142857 21.1711647727273  31.1383928571429 21.0788352272727  C 35.0074404761905 18.0319602272727  38.7369791666667 15.1051136363636  42.3270089285714 12.2982954545455  C 43.3314732142857 11.5042613636364  44.2661830357143 10.4378551136364  45.1311383928571 9.09907670454545  Z M 48.6886160714286 1.30184659090909  C 49.5628720238095 2.16974431818181  50 3.21306818181818  50 4.43181818181818  L 50 34.5681818181818  C 50 35.7869318181818  49.5628720238095 36.8302556818182  48.6886160714286 37.6981534090909  C 47.8143601190476 38.5660511363636  46.7633928571429 39  45.5357142857143 39  L 4.46428571428571 39  C 3.23660714285714 39  2.18563988095238 38.5660511363636  1.31138392857143 37.6981534090909  C 0.437127976190476 36.8302556818182  0 35.7869318181818  0 34.5681818181818  L 0 4.43181818181818  C 0 3.21306818181818  0.437127976190476 2.16974431818181  1.31138392857143 1.30184659090909  C 2.18563988095238 0.433948863636359  3.23660714285714 0  4.46428571428571 0  L 45.5357142857143 0  C 46.7633928571429 0  47.8143601190476 0.433948863636359  48.6886160714286 1.30184659090909  Z " fill-rule="nonzero" fill="#000000" stroke="none" transform="matrix(1 0 0 1 218 875 )" />
  </g>
</svg>