<?xml version="1.0" encoding="utf-8"?>
<svg version="1.1" xmlns:xlink="http://www.w3.org/1999/xlink" width="50px" height="50px" xmlns="http://www.w3.org/2000/svg">
  <g transform="matrix(1 0 0 1 -326 -382 )">
    <path d="M 40.5412946428571 25.1255580357143  C 40.7831101190476 25.1534598214286  40.9784226190476 25.2697172619048  41.1272321428571 25.4743303571429  L 42.2154017857143 26.8973214285714  C 42.3642113095238 27.1019345238095  42.4246651785714 27.3204985119048  42.3967633928571 27.5530133928571  C 42.3688616071429 27.7855282738095  42.2619047619048 27.9761904761905  42.0758928571429 28.125  C 41.2760416666667 28.7574404761905  40.0995163690476 29.6735491071429  38.5463169642857 30.8733258928571  C 36.9931175595238 32.0731026785714  35.6305803571429 33.1240699404762  34.4587053571429 34.0262276785714  C 33.2868303571429 34.9283854166667  32.6636904761905 35.4073660714286  32.5892857142857 35.4631696428571  C 31.8638392857143 36.0584077380952  31.3058035714286 36.5048363095238  30.9151785714286 36.8024553571429  C 30.5245535714286 37.1000744047619  29.9618675595238 37.4813988095238  29.2271205357143 37.9464285714286  C 28.4923735119048 38.4114583333333  27.7808779761905 38.7509300595238  27.0926339285714 38.96484375  C 26.4043898809524 39.1787574404762  25.7161458333333 39.2857142857143  25.0279017857143 39.2857142857143  L 25 39.2857142857143  L 24.9720982142857 39.2857142857143  C 24.2838541666667 39.2857142857143  23.5956101190476 39.1787574404762  22.9073660714286 38.96484375  C 22.2191220238095 38.7509300595238  21.5122767857143 38.4114583333333  20.7868303571429 37.9464285714286  C 20.0613839285714 37.4813988095238  19.4940476190476 37.0954241071429  19.0848214285714 36.7885044642857  C 18.6755952380952 36.4815848214286  18.1175595238095 36.039806547619  17.4107142857143 35.4631696428571  C 17.3177083333333 35.3887648809524  16.7131696428571 34.9190848214286  15.5970982142857 34.0541294642857  C 14.4810267857143 33.1891741071429  13.1463913690476 32.1568080357143  11.5931919642857 30.95703125  C 10.0399925595238 29.7572544642857  8.90066964285714 28.8783482142857  8.17522321428571 28.3203125  C 7.97061011904762 28.1715029761905  7.85435267857143 27.9808407738095  7.82645089285714 27.7483258928571  C 7.79854910714286 27.5158110119048  7.85900297619048 27.2972470238095  8.0078125 27.0926339285714  L 9.04017857142857 25.6417410714286  C 9.1889880952381 25.4371279761905  9.38895089285714 25.3162202380952  9.64006696428571 25.2790178571429  C 9.89118303571429 25.2418154761905  10.1190476190476 25.3069196428571  10.3236607142857 25.4743303571429  C 12.0721726190476 26.8322172619048  14.9181547619048 29.0271577380952  18.8616071428571 32.0591517857143  C 18.9546130952381 32.133556547619  19.3591889880952 32.4590773809524  20.0753348214286 33.0357142857143  C 20.7914806547619 33.6123511904762  21.3541666666667 34.0448288690476  21.7633928571429 34.3331473214286  C 22.1726190476191 34.6214657738095  22.6981026785714 34.9237351190476  23.33984375 35.2399553571429  C 23.9815848214286 35.5561755952381  24.5256696428571 35.7142857142857  24.9720982142857 35.7142857142857  L 25 35.7142857142857  L 25.0279017857143 35.7142857142857  C 25.4743303571429 35.7142857142857  26.0184151785714 35.5561755952381  26.66015625 35.2399553571429  C 27.3018973214286 34.9237351190476  27.827380952381 34.6214657738095  28.2366071428571 34.3331473214286  C 28.6458333333333 34.0448288690476  29.2085193452381 33.6123511904762  29.9246651785714 33.0357142857143  C 30.6408110119048 32.4590773809524  31.0453869047619 32.133556547619  31.1383928571429 32.0591517857143  C 35.9375 28.3761160714286  38.8485863095238 26.1253720238095  39.8716517857143 25.3069196428571  C 40.0762648809524 25.1581101190476  40.2994791666667 25.09765625  40.5412946428571 25.1255580357143  Z M 46.1635044642857 46.1635044642857  C 46.3402157738095 45.9867931547619  46.4285714285714 45.7775297619048  46 45.5357142857143  L 46 19.6428571428571  C 44.7544642857143 18.0989583333333  43.2756696428571 16.8061755952381  41.9921875 15.7645089285714  C 40.2994791666667 14.3880208333333  36.6815476190476 11.5606398809524  31.1383928571429 7.28236607142857  C 31.0825892857143 7.24516369047619  30.6826636904762 6.91964285714286  29.9386160714286 6.30580357142857  C 29.194568452381 5.69196428571428  28.6272321428571 5.24553571428572  28.2366071428571 4.96651785714286  C 27.8459821428571 4.6875  27.3251488095238 4.3852306547619  26.6741071428571 4.05970982142857  C 26.0230654761905 3.73418898809524  25.4743303571429 3.57142857142857  25.0279017857143 3.57142857142857  L 25 3.57142857142857  L 24.9720982142857 3.57142857142857  C 24.5256696428571 3.57142857142857  23.9769345238095 3.73418898809524  23.3258928571429 4.05970982142857  C 22.6748511904762 4.3852306547619  22.1540178571429 4.6875  21.7633928571429 4.96651785714286  C 21.3727678571429 5.24553571428572  20.8054315476191 5.69196428571428  20.0613839285714 6.30580357142857  C 19.3173363095238 6.91964285714286  18.9174107142857 7.24516369047619  18.8616071428571 7.28236607142857  C 14.8623511904762 10.3701636904762  11.9280133928571 12.6534598214286  10.05859375 14.1322544642857  C 8.18917410714286 15.6110491071429  6.98474702380952 16.5783110119048  6.4453125 17.0340401785714  C 5.90587797619048 17.4897693452381  5.14322916666667 18.1826636904762  4.15736607142857 19.1127232142857  C 3.89694940476191 19.3359375  3.70163690476191 19.5126488095238  4 19.6428571428571  L 4 45.5357142857143  C 3.57142857142857 45.7775297619048  3.65978422619048 45.9867931547619  3.83649553571429 46.1635044642857  C 4.01320684523809 46.3402157738095  4.22247023809524 46.4285714285714  4.46428571428571 46  L 45.5357142857143 46  C 45.7775297619048 46.4285714285714  45.9867931547619 46.3402157738095  46.1635044642857 46.1635044642857  Z M 48.8560267857143 17.0200892857143  C 49.6186755952381 17.7269345238095  50 18.6011904761905  50 19.6428571428571  L 50 45.5357142857143  C 50 46.7633928571429  49.5628720238095 47.8143601190476  48.6886160714286 48.6886160714286  C 47.8143601190476 49.5628720238095  46.7633928571429 50  45.5357142857143 50  L 4.46428571428571 50  C 3.23660714285714 50  2.18563988095238 49.5628720238095  1.31138392857143 48.6886160714286  C 0.437127976190476 47.8143601190476  0 46.7633928571429  0 45.5357142857143  L 0 19.6428571428571  C 0 18.6011904761905  0.381324404761905 17.7269345238095  1.14397321428571 17.0200892857143  C 3.43191964285714 14.8995535714286  6.68712797619048 12.1977306547619  10.9095982142857 8.91462053571428  C 15.132068452381 5.63151041666666  17.2991071428571 3.94345238095238  17.4107142857143 3.85044642857143  C 18.0803571428571 3.29241071428572  18.6290922619048 2.85063244047619  19.0569196428571 2.52511160714286  C 19.4847470238095 2.19959077380952  20.0567336309524 1.80896577380952  20.7728794642857 1.35323660714285  C 21.4890252976191 0.897507440476186  22.1958705357143 0.558035714285715  22.8934151785714 0.33482142857143  C 23.5909598214286 0.111607142857145  24.2838541666667 0  24.9720982142857 0  L 25 0  L 25.0279017857143 0  C 25.7161458333333 0  26.4090401785714 0.111607142857145  27.1065848214286 0.33482142857143  C 27.8041294642857 0.558035714285715  28.510974702381 0.897507440476186  29.2271205357143 1.35323660714285  C 29.9432663690476 1.80896577380952  30.5152529761905 2.19959077380952  30.9430803571429 2.52511160714286  C 31.3709077380952 2.85063244047619  31.9196428571429 3.29241071428572  32.5892857142857 3.85044642857143  C 33.3891369047619 4.52008928571428  34.8400297619048 5.6547619047619  36.9419642857143 7.25446428571428  C 39.0438988095238 8.85416666666666  41.1458333333333 10.5003720238095  43.2477678571429 12.1930803571429  C 45.3497023809524 13.8857886904762  47.2191220238095 15.4947916666667  48.8560267857143 17.0200892857143  Z " fill-rule="nonzero" fill="#000000" stroke="none" transform="matrix(1 0 0 1 326 382 )" />
  </g>
</svg>