<?xml version="1.0" encoding="utf-8"?>
<svg version="1.1" xmlns:xlink="http://www.w3.org/1999/xlink" width="341px" height="341px" xmlns="http://www.w3.org/2000/svg">
  <g transform="matrix(1 0 0 1 -913 -312 )">
    <path d="M 238.243303571429 299.992466517857  C 259.175223214286 288.892206101191  276.364769345238 273.827566964286  289.811941964286 254.798549107143  C 287.021019345238 235.135230654762  281.470889136905 218.801990327381  273.161551339286 205.798828125  C 264.852213541667 192.795665922619  253.149367559524 185.279203869048  238.053013392857 183.249441964286  C 229.553385416667 192.637090773809  219.436290922619 199.963262648809  207.701729910714 205.227957589286  C 195.96716889881 210.492652529762  183.566592261905 213.125  170.5 213.125  C 157.433407738095 213.125  145.03283110119 210.492652529762  133.298270089286 205.227957589286  C 121.563709077381 199.963262648809  111.446614583333 192.637090773809  102.946986607143 183.249441964286  C 87.8506324404762 185.279203869048  76.1477864583333 192.795665922619  67.8384486607143 205.798828125  C 59.5291108630952 218.801990327381  53.9789806547619 235.135230654762  51.1880580357143 254.798549107143  C 64.6352306547619 273.827566964286  81.8247767857143 288.892206101191  102.756696428571 299.992466517857  C 123.688616071429 311.092726934524  146.269717261905 316.642857142857  170.5 316.642857142857  C 194.730282738095 316.642857142857  217.311383928571 311.092726934524  238.243303571429 299.992466517857  Z M 222.163783482143 173.449497767857  C 236.435546875 159.177734375  243.571428571429 141.956473214286  243.571428571429 121.785714285714  C 243.571428571429 101.614955357143  236.435546875 84.3936941964286  222.163783482143 70.1219308035714  C 207.892020089286 55.8501674107143  190.670758928571 48.7142857142857  170.5 48.7142857142857  C 150.329241071429 48.7142857142857  133.107979910714 55.8501674107143  118.836216517857 70.1219308035714  C 104.564453125 84.3936941964286  97.4285714285714 101.614955357143  97.4285714285714 121.785714285714  C 97.4285714285714 141.956473214286  104.564453125 159.177734375  118.836216517857 173.449497767857  C 133.107979910714 187.721261160714  150.329241071429 194.857142857143  170.5 194.857142857143  C 190.670758928571 194.857142857143  207.892020089286 187.721261160714  222.163783482143 173.449497767857  Z M 327.489397321429 104.279017857143  C 336.49646577381 125.337797619048  341 147.411458333333  341 170.5  C 341 193.588541666667  336.49646577381 215.63048735119  327.489397321429 236.625837053571  C 318.482328869048 257.621186755952  306.398902529762 275.762183779762  291.239118303571 291.048828125  C 276.079334077381 306.335472470238  257.970052083333 318.482328869048  236.911272321429 327.489397321429  C 215.852492559524 336.49646577381  193.715401785714 341  170.5 341  C 147.411458333333 341  125.337797619048 336.49646577381  104.279017857143 327.489397321429  C 83.2202380952381 318.482328869048  65.0792410714286 306.3671875  49.8560267857143 291.143973214286  C 34.6328125 275.920758928571  22.5176711309524 257.779761904762  13.5106026785714 236.720982142857  C 4.50353422619048 215.662202380952  0 193.588541666667  0 170.5  C 0 147.411458333333  4.50353422619048 125.337797619048  13.5106026785714 104.279017857143  C 22.5176711309524 83.2202380952381  34.6328125 65.0792410714286  49.8560267857143 49.8560267857143  C 65.0792410714286 34.6328125  83.2202380952381 22.5176711309524  104.279017857143 13.5106026785714  C 125.337797619048 4.50353422619047  147.411458333333 0  170.5 0  C 193.588541666667 0  215.662202380952 4.50353422619047  236.720982142857 13.5106026785714  C 257.779761904762 22.5176711309524  275.920758928571 34.6328125  291.143973214286 49.8560267857143  C 306.3671875 65.0792410714286  318.482328869048 83.2202380952381  327.489397321429 104.279017857143  Z " fill-rule="nonzero" fill="#000000" stroke="none" transform="matrix(1 0 0 1 913 312 )" />
  </g>
</svg>