<?xml version="1.0" encoding="utf-8"?>
<svg version="1.1" xmlns:xlink="http://www.w3.org/1999/xlink" width="30px" height="30px" xmlns="http://www.w3.org/2000/svg">
  <g transform="matrix(1 0 0 1 -284 -768 )">
    <path d="M 29.3376358695652 12.0250320924262  C 29.7792119565217 12.5064184852375  30 13.0872913992298  30 13.7676508344031  L 30 16.2323491655969  C 30 16.9127086007702  29.7792119565217 17.4935815147625  29.3376358695652 17.9749679075738  C 28.8960597826087 18.4563543003851  28.3220108695652 18.6970474967908  27.6154891304348 18.6970474967908  L 13.2676630434783 18.6970474967908  L 19.2391304347826 24.3581514762516  C 19.7554347826087 24.8202824133504  20.0135869565217 25.397946084724  20.0135869565217 26.0911424903723  C 20.0135869565217 26.7843388960205  19.7554347826087 27.3620025673941  19.2391304347826 27.8241335044929  L 17.710597826087 29.2875481386393  C 17.2078804347826 29.7625160462131  16.5964673913043 30  15.8763586956522 30  C 15.1698369565217 30  14.5516304347826 29.7625160462131  14.0217391304348 29.2875481386393  L 0.754076086956522 16.7329910141207  C 0.251358695652174 16.2580231065469  0 15.6803594351733  0 15  C 0 14.3324775353017  0.251358695652174 13.7483953786906  0.754076086956522 13.2477535301669  L 14.0217391304348 0.731707317073171  C 14.5380434782609 0.243902439024388  15.15625 0  15.8763586956522 0  C 16.5828804347826 0  17.1942934782609 0.243902439024388  17.710597826087 0.731707317073171  L 19.2391304347826 2.15661103979461  C 19.7554347826087 2.64441591784339  20.0135869565217 3.22849807445442  20.0135869565217 3.90885750962773  C 20.0135869565217 4.58921694480102  19.7554347826087 5.17329910141206  19.2391304347826 5.66110397946085  L 13.2676630434783 11.3029525032092  L 27.6154891304348 11.3029525032092  C 28.3220108695652 11.3029525032092  28.8960597826087 11.5436456996149  29.3376358695652 12.0250320924262  Z " fill-rule="nonzero" fill="#000000" stroke="none" transform="matrix(1 0 0 1 284 768 )" />
  </g>
</svg>