<?xml version="1.0" encoding="utf-8"?>
<svg version="1.1" xmlns:xlink="http://www.w3.org/1999/xlink" width="30px" height="30px" xmlns="http://www.w3.org/2000/svg">
  <g transform="matrix(1 0 0 1 -378 -768 )">
    <path d="M 29.2459239130435 13.2670089858793  C 29.7486413043478 13.7163029525032  30 14.2939666238768  30 15  C 30 15.6931964056483  29.7486413043478 16.2772785622593  29.2459239130435 16.7522464698331  L 15.9782608695652 29.2875481386393  C 15.4483695652174 29.7625160462131  14.8301630434783 30  14.1236413043478 30  C 13.4307065217391 30  12.8192934782609 29.7625160462131  12.289402173913 29.2875481386393  L 10.7608695652174 27.8433889602054  C 10.2445652173913 27.3555840821566  9.98641304347826 26.7715019255456  9.98641304347826 26.0911424903723  C 9.98641304347826 25.410783055199  10.2445652173913 24.8267008985879  10.7608695652174 24.3388960205392  L 16.7323369565217 18.6970474967908  L 2.38451086956522 18.6970474967908  C 1.67798913043478 18.6970474967908  1.1039402173913 18.4563543003851  0.662364130434783 17.9749679075738  C 0.220788043478261 17.4935815147625  0 16.9127086007702  0 16.2323491655969  L 0 13.7676508344031  C 0 13.0872913992298  0.220788043478261 12.5064184852375  0.662364130434783 12.0250320924262  C 1.1039402173913 11.5436456996149  1.67798913043478 11.3029525032092  2.38451086956522 11.3029525032092  L 16.7323369565217 11.3029525032092  L 10.7608695652174 5.6418485237484  C 10.2445652173913 5.17971758664955  9.98641304347826 4.602053915276  9.98641304347826 3.90885750962773  C 9.98641304347826 3.21566110397946  10.2445652173913 2.63799743260591  10.7608695652174 2.17586649550706  L 12.289402173913 0.731707317073171  C 12.8057065217391 0.243902439024388  13.4171195652174 0  14.1236413043478 0  C 14.84375 0  15.4619565217391 0.243902439024388  15.9782608695652 0.731707317073171  L 29.2459239130435 13.2670089858793  Z " fill-rule="nonzero" fill="#000000" stroke="none" transform="matrix(1 0 0 1 378 768 )" />
  </g>
</svg>