<?xml version="1.0" encoding="utf-8"?>
<svg version="1.1" xmlns:xlink="http://www.w3.org/1999/xlink" width="29px" height="28px" xmlns="http://www.w3.org/2000/svg">
  <g transform="matrix(1 0 0 1 -927 -441 )">
    <path d="M 21.9765625 25.4275  C 22.1973157051282 25.2058333333333  22.3076923076923 24.9433333333333  22.3076923076923 24.64  C 22.3076923076923 24.3366666666667  22.1973157051282 24.0741666666667  21.9765625 23.8525  C 21.7558092948718 23.6308333333333  21.494391025641 23.52  21.1923076923077 23.52  C 20.8902243589744 23.52  20.6288060897436 23.6308333333333  20.4080528846154 23.8525  C 20.1872996794872 24.0741666666667  20.0769230769231 24.3366666666667  20.0769230769231 24.64  C 20.0769230769231 24.9433333333333  20.1872996794872 25.2058333333333  20.4080528846154 25.4275  C 20.6288060897436 25.6491666666667  20.8902243589744 25.76  21.1923076923077 25.76  C 21.494391025641 25.76  21.7558092948718 25.6491666666667  21.9765625 25.4275  Z M 26.4381009615385 25.4275  C 26.6588541666667 25.2058333333333  26.7692307692308 24.9433333333333  26.7692307692308 24.64  C 26.7692307692308 24.3366666666667  26.6588541666667 24.0741666666667  26.4381009615385 23.8525  C 26.2173477564103 23.6308333333333  25.9559294871795 23.52  25.6538461538462 23.52  C 25.3517628205128 23.52  25.0903445512821 23.6308333333333  24.8695913461538 23.8525  C 24.6488381410256 24.0741666666667  24.5384615384615 24.3366666666667  24.5384615384615 24.64  C 24.5384615384615 24.9433333333333  24.6488381410256 25.2058333333333  24.8695913461538 25.4275  C 25.0903445512821 25.6491666666667  25.3517628205128 25.76  25.6538461538462 25.76  C 25.9559294871795 25.76  26.2173477564103 25.6491666666667  26.4381009615385 25.4275  Z M 28.5120192307692 19.53  C 28.8373397435897 19.8566666666667  29 20.2533333333333  29 20.72  L 29 26.32  C 29 26.7866666666667  28.8373397435897 27.1833333333333  28.5120192307692 27.51  C 28.1866987179487 27.8366666666667  27.7916666666667 28  27.3269230769231 28  L 1.67307692307692 28  C 1.20833333333333 28  0.813301282051282 27.8366666666667  0.487980769230769 27.51  C 0.162660256410256 27.1833333333333  0 26.7866666666667  0 26.32  L 0 20.72  C 0 20.2533333333333  0.162660256410256 19.8566666666667  0.487980769230769 19.53  C 0.813301282051282 19.2033333333333  1.20833333333333 19.04  1.67307692307692 19.04  L 9.11478365384616 19.04  C 9.35877403846154 19.6933333333333  9.76832932692308 20.23  10.3434495192308 20.65  C 10.9185697115385 21.07  11.5604967948718 21.28  12.2692307692308 21.28  L 16.7307692307692 21.28  C 17.4395032051282 21.28  18.0814302884615 21.07  18.6565504807692 20.65  C 19.2316706730769 20.23  19.6412259615385 19.6933333333333  19.8852163461538 19.04  L 27.3269230769231 19.04  C 27.7916666666667 19.04  28.1866987179487 19.2033333333333  28.5120192307692 19.53  Z M 23.0919471153846 8.1725  C 23.4521233974359 8.5225  23.533453525641 8.925  23.3359375 9.38  C 23.138421474359 9.84666666666666  22.7956730769231 10.08  22.3076923076923 10.08  L 17.8461538461538 10.08  L 17.8461538461538 17.92  C 17.8461538461538 18.2233333333333  17.7357772435897 18.4858333333333  17.5150240384615 18.7075  C 17.2942708333333 18.9291666666667  17.0328525641026 19.04  16.7307692307692 19.04  L 12.2692307692308 19.04  C 11.9671474358974 19.04  11.7057291666667 18.9291666666667  11.4849759615385 18.7075  C 11.2642227564103 18.4858333333333  11.1538461538462 18.2233333333333  11.1538461538462 17.92  L 11.1538461538462 10.08  L 6.69230769230769 10.08  C 6.20432692307692 10.08  5.86157852564103 9.84666666666666  5.6640625 9.38  C 5.46654647435898 8.925  5.5478766025641 8.5225  5.90805288461538 8.1725  L 13.7157451923077 0.332499999999999  C 13.9248798076923 0.110833333333332  14.1862980769231 0  14.5 0  C 14.8137019230769 0  15.0751201923077 0.110833333333332  15.2842548076923 0.332499999999999  L 23.0919471153846 8.1725  Z " fill-rule="nonzero" fill="#000000" stroke="none" transform="matrix(1 0 0 1 927 441 )" />
  </g>
</svg>