<?xml version="1.0" encoding="utf-8"?>
<svg version="1.1" xmlns:xlink="http://www.w3.org/1999/xlink" width="12px" height="12px" viewBox="835 548.5  12 12" xmlns="http://www.w3.org/2000/svg">
  <path d="M 841 548.5  C 844.36 548.5  847 551.14  847 554.5  C 847 557.86  844.36 560.5  841 560.5  C 837.64 560.5  835 557.86  835 554.5  C 835 551.14  837.64 548.5  841 548.5  Z " fill-rule="nonzero" fill="#ffffff" stroke="none" />
  <path d="M 841 549  C 844.08 549  846.5 551.42  846.5 554.5  C 846.5 557.58  844.08 560  841 560  C 837.92 560  835.5 557.58  835.5 554.5  C 835.5 551.42  837.92 549  841 549  Z " stroke-width="1" stroke="#797979" fill="none" />
  <path d="M 841 557.5  C 839.32 557.5  838 556.18  838 554.5  C 838 552.82  839.32 551.5  841 551.5  C 842.68 551.5  844 552.82  844 554.5  C 844 556.18  842.68 557.5  841 557.5  " fill-rule="nonzero" fill="#797979" stroke="none" />
</svg>