<?xml version="1.0" encoding="utf-8"?>
<svg version="1.1" xmlns:xlink="http://www.w3.org/1999/xlink" width="12px" height="12px" viewBox="835 569.5  12 12" xmlns="http://www.w3.org/2000/svg">
  <path d="M 841 569.5  C 844.36 569.5  847 572.14  847 575.5  C 847 578.86  844.36 581.5  841 581.5  C 837.64 581.5  835 578.86  835 575.5  C 835 572.14  837.64 569.5  841 569.5  Z " fill-rule="nonzero" fill="#ffffff" stroke="none" />
  <path d="M 841 570  C 844.08 570  846.5 572.42  846.5 575.5  C 846.5 578.58  844.08 581  841 581  C 837.92 581  835.5 578.58  835.5 575.5  C 835.5 572.42  837.92 570  841 570  Z " stroke-width="1" stroke="#797979" fill="none" />
  <path d="M 841 578.5  C 839.32 578.5  838 577.18  838 575.5  C 838 573.82  839.32 572.5  841 572.5  C 842.68 572.5  844 573.82  844 575.5  C 844 577.18  842.68 578.5  841 578.5  " fill-rule="nonzero" fill="#797979" stroke="none" />
</svg>