<?xml version="1.0" encoding="utf-8"?>
<svg version="1.1" xmlns:xlink="http://www.w3.org/1999/xlink" width="12px" height="12px" viewBox="835 643.5  12 12" xmlns="http://www.w3.org/2000/svg">
  <path d="M 841 643.5  C 844.36 643.5  847 646.14  847 649.5  C 847 652.86  844.36 655.5  841 655.5  C 837.64 655.5  835 652.86  835 649.5  C 835 646.14  837.64 643.5  841 643.5  Z " fill-rule="nonzero" fill="#ffffff" stroke="none" />
  <path d="M 841 644  C 844.08 644  846.5 646.42  846.5 649.5  C 846.5 652.58  844.08 655  841 655  C 837.92 655  835.5 652.58  835.5 649.5  C 835.5 646.42  837.92 644  841 644  Z " stroke-width="1" stroke="#797979" fill="none" />
  <path d="M 841 652.5  C 839.32 652.5  838 651.18  838 649.5  C 838 647.82  839.32 646.5  841 646.5  C 842.68 646.5  844 647.82  844 649.5  C 844 651.18  842.68 652.5  841 652.5  " fill-rule="nonzero" fill="#797979" stroke="none" />
</svg>