<?xml version="1.0" encoding="utf-8"?>
<svg version="1.1" xmlns:xlink="http://www.w3.org/1999/xlink" width="140px" height="40px" xmlns="http://www.w3.org/2000/svg">
  <g transform="matrix(1 0 0 1 -451 -844 )">
    <path d="M 453 849  A 3 3 0 0 1 456 846 L 586 846  A 3 3 0 0 1 589 849 L 589 879  A 3 3 0 0 1 586 882 L 456 882  A 3 3 0 0 1 453 879 L 453 849  Z " fill-rule="nonzero" fill="#52796f" stroke="none" fill-opacity="0" />
    <path d="M 452 849  A 4 4 0 0 1 456 845 L 586 845  A 4 4 0 0 1 590 849 L 590 879  A 4 4 0 0 1 586 883 L 456 883  A 4 4 0 0 1 452 879 L 452 849  Z " stroke-width="2" stroke="#797979" fill="none" stroke-opacity="0.129411764705882" />
  </g>
</svg>