<?xml version="1.0" encoding="utf-8"?>
<svg version="1.1" xmlns:xlink="http://www.w3.org/1999/xlink" width="90px" height="90px" xmlns="http://www.w3.org/2000/svg">
  <g transform="matrix(1 0 0 1 -1147 -664 )">
    <path d="M 55.60546875 55.60546875  C 58.53515625 52.67578125  60 49.140625  60 45  C 60 40.859375  58.53515625 37.32421875  55.60546875 34.39453125  C 52.67578125 31.46484375  49.140625 30  45 30  C 40.859375 30  37.32421875 31.46484375  34.39453125 34.39453125  C 31.46484375 37.32421875  30 40.859375  30 45  C 30 49.140625  31.46484375 52.67578125  34.39453125 55.60546875  C 37.32421875 58.53515625  40.859375 60  45 60  C 49.140625 60  52.67578125 58.53515625  55.60546875 55.60546875  Z M 89.53125 37.236328125  C 89.84375 37.646484375  90 38.10546875  90 38.61328125  L 90 51.62109375  C 90 52.08984375  89.84375 52.5390625  89.53125 52.96875  C 89.21875 53.3984375  88.828125 53.65234375  88.359375 53.73046875  L 77.51953125 55.37109375  C 76.77734375 57.48046875  76.015625 59.2578125  75.234375 60.703125  C 76.6015625 62.65625  78.69140625 65.3515625  81.50390625 68.7890625  C 81.89453125 69.2578125  82.08984375 69.74609375  82.08984375 70.25390625  C 82.08984375 70.76171875  81.9140625 71.2109375  81.5625 71.6015625  C 80.5078125 73.046875  78.57421875 75.15625  75.76171875 77.9296875  C 72.94921875 80.703125  71.11328125 82.08984375  70.25390625 82.08984375  C 69.78515625 82.08984375  69.27734375 81.9140625  68.73046875 81.5625  L 60.64453125 75.234375  C 58.92578125 76.1328125  57.1484375 76.875  55.3125 77.4609375  C 54.6875 82.7734375  54.12109375 86.40625  53.61328125 88.359375  C 53.33984375 89.453125  52.63671875 90  51.50390625 90  L 38.49609375 90  C 37.94921875 90  37.470703125 89.833984375  37.060546875 89.501953125  C 36.650390625 89.169921875  36.42578125 88.75  36.38671875 88.2421875  L 34.74609375 77.4609375  C 32.83203125 76.8359375  31.07421875 76.11328125  29.47265625 75.29296875  L 21.2109375 81.5625  C 20.8203125 81.9140625  20.33203125 82.08984375  19.74609375 82.08984375  C 19.19921875 82.08984375  18.7109375 81.875  18.28125 81.4453125  C 13.359375 76.9921875  10.13671875 73.7109375  8.61328125 71.6015625  C 8.33984375 71.2109375  8.203125 70.76171875  8.203125 70.25390625  C 8.203125 69.78515625  8.359375 69.3359375  8.671875 68.90625  C 9.2578125 68.0859375  10.25390625 66.787109375  11.66015625 65.009765625  C 13.06640625 63.232421875  14.12109375 61.85546875  14.82421875 60.87890625  C 13.76953125 58.92578125  12.96875 56.9921875  12.421875 55.078125  L 1.69921875 53.49609375  C 1.19140625 53.41796875  0.78125 53.173828125  0.46875 52.763671875  C 0.15625 52.353515625  0 51.89453125  0 51.38671875  L 0 38.37890625  C 0 37.91015625  0.15625 37.4609375  0.46875 37.03125  C 0.78125 36.6015625  1.15234375 36.34765625  1.58203125 36.26953125  L 12.48046875 34.62890625  C 13.02734375 32.83203125  13.7890625 31.03515625  14.765625 29.23828125  C 13.203125 27.01171875  11.11328125 24.31640625  8.49609375 21.15234375  C 8.10546875 20.68359375  7.91015625 20.21484375  7.91015625 19.74609375  C 7.91015625 19.35546875  8.0859375 18.90625  8.4375 18.3984375  C 9.453125 16.9921875  11.376953125 14.892578125  14.208984375 12.099609375  C 17.041015625 9.30664062499999  18.88671875 7.91015625  19.74609375 7.91015625  C 20.25390625 7.91015625  20.76171875 8.10546875  21.26953125 8.49609375  L 29.35546875 14.765625  C 31.07421875 13.8671875  32.8515625 13.125  34.6875 12.5390625  C 35.3125 7.2265625  35.87890625 3.59374999999999  36.38671875 1.640625  C 36.66015625 0.546874999999996  37.36328125 0  38.49609375 0  L 51.50390625 0  C 52.05078125 0  52.529296875 0.166015624999992  52.939453125 0.498046874999997  C 53.349609375 0.830078124999991  53.57421875 1.25  53.61328125 1.7578125  L 55.25390625 12.5390625  C 57.16796875 13.1640625  58.92578125 13.88671875  60.52734375 14.70703125  L 68.84765625 8.4375  C 69.19921875 8.0859375  69.66796875 7.91015625  70.25390625 7.91015625  C 70.76171875 7.91015625  71.25 8.10546875  71.71875 8.49609375  C 76.7578125 13.14453125  79.98046875 16.46484375  81.38671875 18.45703125  C 81.66015625 18.76953125  81.796875 19.19921875  81.796875 19.74609375  C 81.796875 20.21484375  81.640625 20.6640625  81.328125 21.09375  C 80.7421875 21.9140625  79.74609375 23.212890625  78.33984375 24.990234375  C 76.93359375 26.767578125  75.87890625 28.14453125  75.17578125 29.12109375  C 76.19140625 31.07421875  76.9921875 32.98828125  77.578125 34.86328125  L 88.30078125 36.50390625  C 88.80859375 36.58203125  89.21875 36.826171875  89.53125 37.236328125  Z " fill-rule="nonzero" fill="#000000" stroke="none" transform="matrix(1 0 0 1 1147 664 )" />
  </g>
</svg>