<?xml version="1.0" encoding="utf-8"?>
<svg version="1.1" xmlns:xlink="http://www.w3.org/1999/xlink" width="80px" height="67px" xmlns="http://www.w3.org/2000/svg">
  <g transform="matrix(1 0 0 1 -766 -676 )">
    <path d="M 48.3333333333333 46  L 53.28125 36  L 69.7395833333333 36  C 69.7048611111111 36.7453125  69.6614583333333 36.5970052083333  69.609375 36.405078125  C 69.5572916666667 36.2131510416667  69.5138888888889 36.0822916666667  69.4791666666667 36.0125  L 58.4375 10  L 21.5625 10  L 10.5208333333333 36.0125  C 10.4861111111111 36.1171875  10.4427083333333 36.2654947916667  10.390625 36.457421875  C 10.3385416666667 36.6493489583333  10.2951388888889 36.7802083333333  10.2604166666667 36  L 26.71875 36  L 31.6666666666667 46  L 48.3333333333333 46  Z M 78.6979166666667 31.98203125  C 79.5659722222222 34.1106770833333  80 36.2567708333333  80 38.4203125  L 80 63.65  C 80 64.5572916666667  79.6701388888889 65.3424479166667  79.0104166666667 66.00546875  C 78.3506944444445 66.6684895833333  77.5694444444445 67  76.6666666666667 67  L 3.33333333333333 67  C 2.43055555555556 67  1.64930555555556 66.6684895833333  0.989583333333333 66.00546875  C 0.329861111111111 65.3424479166667  0 64.5572916666667  0 63.65  L 0 38.4203125  C 0 36.2567708333333  0.434027777777778 34.1106770833333  1.30208333333333 31.98203125  L 13.6979166666667 3.08828125  C 14.0451388888889 2.21588541666666  14.6788194444444 1.48307291666666  15.5989583333333 0.889843750000001  C 16.5190972222222 0.296614583333324  17.4305555555556 0  18.3333333333333 0  L 61.6666666666667 0  C 62.5694444444445 0  63.4809027777778 0.296614583333324  64.4010416666667 0.889843750000001  C 65.3211805555556 1.48307291666666  65.9548611111111 2.21588541666666  66.3020833333333 3.08828125  L 78.6979166666667 31.98203125  Z " fill-rule="nonzero" fill="#000000" stroke="none" transform="matrix(1 0 0 1 766 676 )" />
  </g>
</svg>