<?xml version="1.0" encoding="utf-8"?>
<svg version="1.1" xmlns:xlink="http://www.w3.org/1999/xlink" width="50px" height="50px" xmlns="http://www.w3.org/2000/svg">
  <g transform="matrix(1 0 0 1 -59 -758 )">
    <path d="M 0 10.7142857142857  L 25 0  L 50 10.7142857142857  L 50 14.2857142857143  L 46.6666666666667 14.2857142857143  C 46.6666666666667 14.7693452380952  46.4887152777778 15.1878720238095  46.1328125 15.5412946428571  C 45.7769097222222 15.8947172619048  45.3559027777778 16.0714285714286  44.8697916666667 16  L 5.13020833333333 16  C 4.64409722222222 16.0714285714286  4.22309027777778 15.8947172619048  3.8671875 15.5412946428571  C 3.51128472222222 15.1878720238095  3.33333333333333 14.7693452380952  3.33333333333333 14.2857142857143  L 0 14.2857142857143  L 0 10.7142857142857  Z M 7 39.2857142857143  L 7 17.8571428571429  L 14 17.8571428571429  L 14 39.2857142857143  L 17 39.2857142857143  L 17 17.8571428571429  L 24 17.8571428571429  L 24 39.2857142857143  L 26 39.2857142857143  L 26 17.8571428571429  L 33 17.8571428571429  L 33 39.2857142857143  L 36 39.2857142857143  L 36 17.8571428571429  L 43 17.8571428571429  L 43 39.2857142857143  L 44.8697916666667 39.2857142857143  C 45.3559027777778 39.2857142857143  45.7769097222222 39.4624255952381  46.1328125 39.8158482142857  C 46.4887152777778 40.1692708333333  46.6666666666667 40.5877976190476  46.6666666666667 41.0714285714286  L 46.6666666666667 42  L 3.33333333333333 42  L 3.33333333333333 41.0714285714286  C 3.33333333333333 40.5877976190476  3.51128472222222 40.1692708333333  3.8671875 39.8158482142857  C 4.22309027777778 39.4624255952381  4.64409722222222 39.2857142857143  5.13020833333333 39.2857142857143  L 7 39.2857142857143  Z M 1.796875 44  L 48.203125 44  C 48.6892361111111 44.6428571428571  49.1102430555556 44.8195684523809  49.4661458333333 45.1729910714286  C 49.8220486111111 45.5264136904762  50 45.9449404761905  50 46.4285714285714  L 50 50  L 0 50  L 0 46.4285714285714  C 0 45.9449404761905  0.177951388888889 45.5264136904762  0.533854166666667 45.1729910714286  C 0.889756944444445 44.8195684523809  1.31076388888889 44.6428571428571  1.796875 44  Z " fill-rule="nonzero" fill="#000000" stroke="none" transform="matrix(1 0 0 1 59 758 )" />
  </g>
</svg>